ExternalForces									
version=1									
nRows=103									
nColumns=10									
inDegrees=yes									
endheader									
time	chair_force_vx	chair_force_vy	chair_force_vz	chair_force_px	chair_force_py	chair_force_pz	chair_torque_x	chair_torque_y	chair_torque_z
0	195.3857887	258.9500826	0	0	0	0	0	0	0
0.02259646	193.3624471	263.837373	0	0	0	0	0	0	0
0.02385611	200.3429683	264.0370735	0	0	0	0	0	0	0
0.02590753	201.372785	264.7435515	0	0	0	0	0	0	0
0.0361646	215.2000809	268.3216323	0	0	0	0	0	0	0
0.03740723	208.8448652	269.072273	0	0	0	0	0	0	0
0.0406132	207.1224032	270.5200533	0	0	0	0	0	0	0
0.04792916	207.5263204	273.8072099	0	0	0	0	0	0	0
0.05045119	209.6923376	274.9041978	0	0	0	0	0	0	0
0.05916313	223.9142599	278.546302	0	0	0	0	0	0	0
0.06021723	217.4847616	279.3017523	0	0	0	0	0	0	0
0.06342244	215.2208508	280.963139	0	0	0	0	0	0	0
0.07026272	215.7513271	284.3539808	0	0	0	0	0	0	0
0.074612	218.7729544	286.4280422	0	0	0	0	0	0	0
0.08264426	220.2007367	290.4462248	0	0	0	0	0	0	0
0.08545139	222.1738351	291.7933839	0	0	0	0	0	0	0
0.0942627	231.8842979	295.8523456	0	0	0	0	0	0	0
0.09544782	228.5966751	296.5943349	0	0	0	0	0	0	0
0.10021215	227.2272766	299.0553631	0	0	0	0	0	0	0
0.1074807	235.6160033	301.2758678	0	0	0	0	0	0	0
0.10874255	232.4866191	301.8777146	0	0	0	0	0	0	0
0.11505182	220.8025806	304.2072845	0	0	0	0	0	0	0
0.11578077	228.0711258	303.7624015	0	0	0	0	0	0	0
0.11731485	230.4165978	303.6443752	0	0	0	0	0	0	0
0.12314278	234.3043063	303.5980689	0	0	0	0	0	0	0
0.12837946	231.7959597	303.7516872	0	0	0	0	0	0	0
0.13530671	248.615153	302.3896763	0	0	0	0	0	0	0
0.13621315	238.6197693	302.8512079	0	0	0	0	0	0	0
0.13854497	234.3017179	302.8228755	0	0	0	0	0	0	0
0.14451467	231.1819023	302.0917341	0	0	0	0	0	0	0
0.14658506	232.6442562	301.6176197	0	0	0	0	0	0	0
0.1526692	235.0005948	300.1338865	0	0	0	0	0	0	0
0.15595499	233.1725484	299.4133941	0	0	0	0	0	0	0
0.16463401	225.0704799	297.4494194	0	0	0	0	0	0	0
0.16554484	231.9530799	296.6992143	0	0	0	0	0	0	0
0.16705593	232.4853774	296.1812472	0	0	0	0	0	0	0
0.17461135	241.6122898	292.9709037	0	0	0	0	0	0	0
0.17566798	236.2155747	292.9838017	0	0	0	0	0	0	0
0.17922409	232.9225862	291.9389543	0	0	0	0	0	0	0
0.18632421	229.6748589	289.5264938	0	0	0	0	0	0	0
0.18730266	231.6968163	288.9918796	0	0	0	0	0	0	0
0.19027946	232.4340223	287.7752289	0	0	0	0	0	0	0
0.19791358	232.3491708	284.7324717	0	0	0	0	0	0	0
0.20291753	232.1239265	282.6007336	0	0	0	0	0	0	0
0.20792148	230.645322	280.0801018	0	0	0	0	0	0	0
0.2173366	234.2986258	274.2218098	0	0	0	0	0	0	0
0.21853375	228.271452	274.0850006	0	0	0	0	0	0	0
0.22217686	222.905296	272.4132887	0	0	0	0	0	0	0
0.22943835	213.8132315	268.9095524	0	0	0	0	0	0	0
0.23041141	216.0165856	268.0749819	0	0	0	0	0	0	0
0.23262263	214.9086949	266.8184348	0	0	0	0	0	0	0
0.24002838	213.8958838	262.2545487	0	0	0	0	0	0	0
0.24117944	210.4638666	261.9085029	0	0	0	0	0	0	0
0.24655295	198.3730183	259.8836176	0	0	0	0	0	0	0
0.24719626	202.1898554	259.0191511	0	0	0	0	0	0	0
0.24886959	202.1407427	257.9493167	0	0	0	0	0	0	0
0.25368792	199.8011422	255.1176598	0	0	0	0	0	0	0
0.25804007	194.854841	252.9100992	0	0	0	0	0	0	0
0.26416394	204.7515384	247.5799719	0	0	0	0	0	0	0
0.26503328	194.9885567	248.300142	0	0	0	0	0	0	0
0.26752868	188.8825896	247.4739139	0	0	0	0	0	0	0
0.27250061	182.6731459	245.0560099	0	0	0	0	0	0	0
0.27456793	182.5037026	243.7189115	0	0	0	0	0	0	0
0.27954449	178.7349642	240.9779019	0	0	0	0	0	0	0
0.2866518	175.506213	236.7581833	0	0	0	0	0	0	0
0.28820409	173.0649551	236.1039972	0	0	0	0	0	0	0
0.29322604	167.0687922	233.7248159	0	0	0	0	0	0	0
0.29476686	167.4944485	232.6401631	0	0	0	0	0	0	0
0.29875928	165.2015833	230.3766902	0	0	0	0	0	0	0
0.30403414	158.5553164	227.366836	0	0	0	0	0	0	0
0.30608045	158.570521	225.2740285	0	0	0	0	0	0	0
0.31058008	153.601043	220.6843596	0	0	0	0	0	0	0
0.31586745	153.8275268	212.9161387	0	0	0	0	0	0	0
0.31699016	149.4948723	211.9010423	0	0	0	0	0	0	0
0.32112609	142.7322452	206.0762029	0	0	0	0	0	0	0
0.32596295	151.2108606	195.36349	0	0	0	0	0	0	0
0.32683269	142.6863004	195.2912334	0	0	0	0	0	0	0
0.32953262	136.714916	190.9937379	0	0	0	0	0	0	0
0.33416549	131.1469355	182.2970605	0	0	0	0	0	0	0
0.33592152	131.2313748	178.4339493	0	0	0	0	0	0	0
0.34024511	128.2930074	169.3096891	0	0	0	0	0	0	0
0.35185286	126.37285	142.2318659	0	0	0	0	0	0	0
0.35354984	121.8841333	139.0990947	0	0	0	0	0	0	0
0.35791965	116.9602204	129.5087135	0	0	0	0	0	0	0
0.35977309	117.4472434	124.8297511	0	0	0	0	0	0	0
0.36411341	115.1054729	114.636257	0	0	0	0	0	0	0
0.36871546	117.3558605	102.6578593	0	0	0	0	0	0	0
0.37017892	114.0082346	99.82830414	0	0	0	0	0	0	0
0.37469246	108.2959793	90.01732588	0	0	0	0	0	0	0
0.37541702	109.8946856	87.81626673	0	0	0	0	0	0	0
0.37765867	109.8051377	82.27726629	0	0	0	0	0	0	0
0.38324275	105.5278852	69.5168555	0	0	0	0	0	0	0
0.38412352	106.6666446	67.03687463	0	0	0	0	0	0	0
0.38691945	106.0010307	60.28833707	0	0	0	0	0	0	0
0.39412207	100.2264243	44.13280348	0	0	0	0	0	0	0
0.40132469	95.29282348	28.11438153	0	0	0	0	0	0	0
0.40852731	85.14624309	13.00364898	0	0	0	0	0	0	0
0.41695736	0	0	0	0	0	0	0	0	0
0.42537685	0	0	0	0	0	0	0	0	0
0.42647281	0	0	0	0	0	0	0	0	0
0.42918094	0	0	0	0	0	0	0	0	0
0.4342855	0	0	0	0	0	0	0	0	0
0.44176606	0	0	0	0	0	0	0	0	0
